<svg width="22" height="22" viewBox="0 0 22 22" fill="none" xmlns="http://www.w3.org/2000/svg">
<path fill-rule="evenodd" clip-rule="evenodd" d="M2.09467 2.09467C3.42914 0.760201 5.42603 0.25 8 0.25H14C16.574 0.25 18.5709 0.760201 19.9053 2.09467C21.2398 3.42914 21.75 5.42603 21.75 8V14C21.75 16.574 21.2398 18.5709 19.9053 19.9053C18.5709 21.2398 16.574 21.75 14 21.75H8C5.42603 21.75 3.42914 21.2398 2.09467 19.9053C0.760201 18.5709 0.25 16.574 0.25 14V8C0.25 5.42603 0.760201 3.42914 2.09467 2.09467ZM3.15533 3.15533C2.2398 4.07086 1.75 5.57397 1.75 8V14C1.75 16.426 2.2398 17.9291 3.15533 18.8447C4.07086 19.7602 5.57397 20.25 8 20.25H14C16.426 20.25 17.9291 19.7602 18.8447 18.8447C19.7602 17.9291 20.25 16.426 20.25 14V8C20.25 5.57397 19.7602 4.07086 18.8447 3.15533C17.9291 2.2398 16.426 1.75 14 1.75H8C5.57397 1.75 4.07086 2.2398 3.15533 3.15533Z" fill="#9197B3"/>
<path fill-rule="evenodd" clip-rule="evenodd" d="M14.7513 7.26197C13.4129 5.93179 11.2465 5.93413 9.92033 7.26034C8.99618 8.1845 8.71456 9.51201 9.07685 10.6894C9.15854 10.955 9.08678 11.2439 8.89034 11.4403L6.32483 14.0058C6.32235 14.0092 6.31697 14.0169 6.30973 14.0298C6.29721 14.052 6.28417 14.0807 6.27342 14.1127C6.26262 14.1448 6.25663 14.1728 6.2541 14.1929C6.25327 14.1994 6.25295 14.204 6.25282 14.2067L6.25343 14.2109L6.41183 15.3989C6.41589 15.418 6.43536 15.4688 6.48728 15.5216C6.53964 15.5749 6.58009 15.585 6.58289 15.5858V15.5858L6.58914 15.5866L7.79723 15.7477C7.79959 15.7477 7.80776 15.7478 7.82187 15.7462C7.84403 15.7437 7.87143 15.738 7.90018 15.7285C7.92908 15.7191 7.95199 15.7083 7.9669 15.6996C7.97018 15.6977 7.97265 15.6962 7.9744 15.695C7.97649 15.6929 7.97859 15.6908 7.98071 15.6886L10.5707 13.1086C10.7684 12.9117 11.059 12.8408 11.3251 12.9246C12.4956 13.2929 13.822 13.0067 14.7488 12.0805C16.0791 10.7412 16.0742 8.57665 14.7513 7.26197ZM15.8087 6.19805C13.8871 4.28823 10.7735 4.28589 8.85967 6.19968C7.6414 7.41796 7.20284 9.11585 7.52779 10.6816L5.24968 12.9597L5.23555 12.9742C5.05192 13.168 4.92646 13.4121 4.8516 13.6348C4.77834 13.8527 4.7259 14.1325 4.76738 14.415L4.92659 15.6091L4.92873 15.624C4.98623 15.9978 5.17759 16.3291 5.41774 16.5734C5.65732 16.817 5.99433 17.0229 6.39346 17.0738L7.5865 17.2328C7.86189 17.2723 8.13926 17.2287 8.36733 17.1539C8.59118 17.0806 8.84617 16.9514 9.04539 16.7453L11.3256 14.4738C12.8964 14.807 14.5946 14.3561 15.8103 13.1403L15.812 13.1387C17.7209 11.218 17.7256 8.10311 15.8087 6.19805Z" fill="#9197B3"/>
<path fill-rule="evenodd" clip-rule="evenodd" d="M8.07275 13.8866C8.36735 13.5954 8.84222 13.5982 9.1334 13.8928L9.98342 14.7528C10.2746 15.0474 10.2718 15.5222 9.97723 15.8134C9.68263 16.1046 9.20776 16.1018 8.91658 15.8072L8.06656 14.9472C7.77539 14.6526 7.77816 14.1778 8.07275 13.8866Z" fill="#9197B3"/>
<path fill-rule="evenodd" clip-rule="evenodd" d="M11.3945 9.7C11.3945 9.14772 11.8422 8.7 12.3945 8.7H12.4035C12.9558 8.7 13.4035 9.14772 13.4035 9.7C13.4035 10.2523 12.9558 10.7 12.4035 10.7H12.3945C11.8422 10.7 11.3945 10.2523 11.3945 9.7Z" fill="#9197B3"/>
</svg>
